<?xml version="1.0" encoding="utf-8"?>
<!-- Generator: Adobe Illustrator 25.1.0, SVG Export Plug-In . SVG Version: 6.00 Build 0)  -->
<svg version="1.1" id="Layer_1" xmlns="http://www.w3.org/2000/svg" xmlns:xlink="http://www.w3.org/1999/xlink" x="0px" y="0px"
	 viewBox="0 0 48 48" style="enable-background:new 0 0 48 48;" xml:space="preserve">
<style type="text/css">
	.st0{fill-rule:evenodd;clip-rule:evenodd;fill:#5B65AE;}
	.st1{fill-rule:evenodd;clip-rule:evenodd;fill:#FFFFFF;}
</style>
<rect class="st0" width="48" height="48"/>
<path class="st1" d="M27.97,26.27h0.91l5.69,5.7l-1.7,1.7l-5.7-5.69v-0.9l-0.31-0.31c-1.29,1.11-2.98,1.79-4.82,1.79
	c-4.1,0-7.42-3.32-7.42-7.42c0-4.1,3.32-7.42,7.42-7.42c4.1,0,7.42,3.32,7.42,7.42c0,1.84-0.67,3.53-1.79,4.82L27.97,26.27z
	 M16.9,21.14c0,2.83,2.3,5.13,5.13,5.13c2.83,0,5.13-2.3,5.13-5.13c0-2.83-2.3-5.13-5.13-5.13C19.2,16,16.9,18.3,16.9,21.14z"/>
</svg>
