<?xml version="1.0" encoding="utf-8"?>
<!-- Generator: Adobe Illustrator 25.1.0, SVG Export Plug-In . SVG Version: 6.00 Build 0)  -->
<svg version="1.1" id="Layer_1" xmlns="http://www.w3.org/2000/svg" xmlns:xlink="http://www.w3.org/1999/xlink" x="0px" y="0px"
	 viewBox="0 0 50 50" style="enable-background:new 0 0 50 50;" xml:space="preserve">
<style type="text/css">
	.st0{fill:#E44E25;}
	.st1{fill-rule:evenodd;clip-rule:evenodd;fill:#FFFFFF;}
</style>
<rect class="st0" width="50" height="50"/>
<path class="st1" d="M22.71,33.5c3.22,0,5.94-2.44,5.94-6.42s-2.72-6.4-5.94-6.4c-1.35,0-2.38,0.34-3.13,1.06V16.5H14.5v16.77h4.83
	v-1.02C20.08,33.09,21.18,33.5,22.71,33.5z M21.49,29.52c-1.12,0-2-0.84-2-2.44c0-1.61,0.88-2.42,2-2.42c1.12,0,2,0.81,2,2.42
	C23.49,28.68,22.62,29.52,21.49,29.52z M35.5,30.56c0,1.72-1.28,2.94-2.97,2.94c-1.69,0-2.97-1.22-2.97-2.94
	c0-1.74,1.28-2.89,2.97-2.89C34.22,27.67,35.5,28.82,35.5,30.56z"/>
</svg>
