<?xml version="1.0" encoding="utf-8"?>
<!-- Generator: Adobe Illustrator 25.1.0, SVG Export Plug-In . SVG Version: 6.00 Build 0)  -->
<svg version="1.1" id="Layer_1" xmlns="http://www.w3.org/2000/svg" xmlns:xlink="http://www.w3.org/1999/xlink" x="0px" y="0px"
	 viewBox="0 0 50 50" style="enable-background:new 0 0 50 50;" xml:space="preserve">
<style type="text/css">
	.st0{fill:#F2DECB;}
	.st1{fill-rule:evenodd;clip-rule:evenodd;fill:#0F8784;}
</style>
<rect class="st0" width="50" height="50"/>
<path class="st1" d="M27.63,16.25c-3.51-3.51-8.72-4.02-11.61-1.13c-2.89,2.89-2.38,8.1,1.12,11.61c0.94,0.94,2.01,1.65,3.15,2.16
	c0.37-2.17,1.44-4.26,3.07-5.97c-0.54-0.19-1.09-0.35-1.67-0.51c-3.41-0.94-5.11-3.78-5.5-7.12c0.33,0.39,0.63,0.81,0.92,1.22
	c0.58,0.8,1.15,1.59,1.93,2.23c1.21,1,2.54,1.38,3.99,1.8c0.06,0.02,0.11,0.03,0.17,0.05c0.69,0.2,1.29,0.5,1.84,0.84
	c1.44-1.05,3.07-1.76,4.75-2.05C29.28,18.26,28.57,17.18,27.63,16.25z M21.69,29.73c0.22-2.17,1.28-4.3,2.96-5.99
	c3.51-3.51,8.72-4.02,11.61-1.12c2.89,2.89,2.39,8.1-1.13,11.61c-1.69,1.69-3.81,2.74-5.99,2.97c-0.29,0.03-0.58,0.04-0.86,0.04
	c-1.87,0-3.54-0.66-4.77-1.89C22.11,33.94,21.46,31.94,21.69,29.73z M26.83,31.52c1.15-0.88,2.4-1.23,3.75-1.6
	c3.41-0.94,5.1-3.78,5.5-7.12c-0.32,0.39-0.62,0.8-0.92,1.21c-0.58,0.8-1.15,1.6-1.94,2.24c-1.21,1-2.55,1.38-4.01,1.81l-0.16,0.05
	c-3.34,0.97-4.99,3.79-5.37,7.07c0.33-0.4,0.63-0.81,0.93-1.21C25.28,33.08,25.93,32.2,26.83,31.52z"/>
</svg>
