<?xml version="1.0" encoding="utf-8"?>
<!-- Generator: Adobe Illustrator 25.1.0, SVG Export Plug-In . SVG Version: 6.00 Build 0)  -->
<svg version="1.1" id="Layer_1" xmlns="http://www.w3.org/2000/svg" xmlns:xlink="http://www.w3.org/1999/xlink" x="0px" y="0px"
	 viewBox="0 0 50 50" style="enable-background:new 0 0 50 50;" xml:space="preserve">
<style type="text/css">
	.st0{fill:#4E1C53;}
	.st1{fill-rule:evenodd;clip-rule:evenodd;fill:#F05151;}
</style>
<rect class="st0" width="50" height="50"/>
<path class="st1" d="M37.45,21.55h-1.96c-0.09,0.52-0.28,0.93-0.57,1.24c-0.28,0.31-0.7,0.47-1.24,0.47c-0.49,0-1.01-0.13-1.58-0.39
	c-0.57-0.26-1.18-0.55-1.84-0.89c-0.66-0.33-1.39-0.62-2.2-0.88c-0.8-0.25-1.69-0.38-2.64-0.38c-1.73,0-3.09,0.73-4.08,2.2
	c-0.99,1.47-1.49,3.45-1.49,5.97h4.36c0.09-0.5,0.31-0.91,0.64-1.22c0.33-0.31,0.77-0.47,1.33-0.47c0.46,0,0.97,0.13,1.52,0.38
	c0.55,0.25,1.18,0.55,1.86,0.89c0.69,0.34,1.45,0.63,2.28,0.89c0.83,0.25,1.73,0.38,2.71,0.38c1,0,1.88-0.27,2.62-0.82
	c-1.74,5.13-6.6,8.82-12.31,8.82c-7.18,0-13-5.82-13-13s5.82-13,13-13C30.92,11.74,36.02,15.91,37.45,21.55z"/>
</svg>
