<?xml version="1.0" encoding="utf-8"?>
<!-- Generator: Adobe Illustrator 25.1.0, SVG Export Plug-In . SVG Version: 6.00 Build 0)  -->
<svg version="1.1" id="Layer_1" xmlns="http://www.w3.org/2000/svg" xmlns:xlink="http://www.w3.org/1999/xlink" x="0px" y="0px"
	 viewBox="0 0 50 50" style="enable-background:new 0 0 50 50;" xml:space="preserve">
<style type="text/css">
	.st0{fill:#4ABC8D;}
	.st1{fill-rule:evenodd;clip-rule:evenodd;fill:#FFFFFF;}
</style>
<rect class="st0" width="50" height="50"/>
<path class="st1" d="M29.36,24.73v2.93h-1.23v-2.93h-0.55v-1.19h0.55c0-1.15,0.63-1.84,1.99-1.76v1.19
	c-0.46-0.04-0.76,0.1-0.76,0.58h0.76v1.19H29.36z M25.97,27.27c-0.27,0.31-0.67,0.5-1.22,0.5c-1.07,0-1.95-0.95-1.95-2.17
	c0-1.23,0.88-2.17,1.95-2.17c0.55,0,0.95,0.19,1.22,0.5v-2.03h1.23v5.76h-1.23V27.27z M9.66,26.71c-0.35,0.64-1.05,1.06-1.85,1.06
	c-1.24,0-2.17-0.95-2.17-2.17c0-1.23,0.92-2.17,2.17-2.17c0.79,0,1.5,0.42,1.85,1.05l-1.07,0.63c-0.14-0.29-0.43-0.46-0.79-0.46
	c-0.53,0-0.92,0.39-0.92,0.95c0,0.57,0.39,0.96,0.92,0.96c0.36,0,0.66-0.17,0.79-0.46L9.66,26.71z M11.19,25.8v1.86H9.97v-4.12h1.23
	v0.73c0.16-0.55,0.71-0.82,1.23-0.82v1.4C11.91,24.78,11.19,24.98,11.19,25.8z M14.61,27.77c1.2,0,2.17-0.95,2.17-2.17
	c0-1.23-0.96-2.17-2.17-2.17s-2.17,0.95-2.17,2.17C12.45,26.83,13.41,27.77,14.61,27.77z M13.67,25.6c0,0.58,0.41,0.97,0.94,0.97
	c0.53,0,0.94-0.39,0.94-0.97c0-0.58-0.41-0.97-0.94-0.97C14.08,24.63,13.67,25.02,13.67,25.6z M19.13,27.66l0.65-2.2l0.65,2.2h1.14
	l1.31-4.12h-1.31L21,25.75l-0.64-2.21h-1.14l-0.64,2.21l-0.59-2.21h-1.31l1.31,4.12H19.13z M25,26.6c-0.56,0-0.97-0.39-0.97-1
	c0-0.62,0.41-1,0.97-1c0.56,0,0.97,0.39,0.97,1C25.97,26.22,25.56,26.6,25,26.6z M31.83,27.77c0.54,0,0.95-0.2,1.17-0.5v0.39h1.23
	v-4.12H33v2.25c0,0.58-0.31,0.85-0.76,0.85c-0.39,0-0.71-0.24-0.71-0.75v-2.35H30.3v2.53C30.3,27.18,31,27.77,31.83,27.77z
	 M36.13,25.41v2.25H34.9v-4.12h1.23v0.39c0.22-0.3,0.63-0.5,1.17-0.5c0.83,0,1.53,0.59,1.53,1.7v2.53H37.6v-2.35
	c0-0.51-0.32-0.75-0.71-0.75C36.44,24.56,36.13,24.83,36.13,25.41z M41.2,27.77c0.55,0,0.95-0.19,1.22-0.5v0.39h1.23v-5.76h-1.23
	v2.03c-0.27-0.31-0.67-0.5-1.22-0.5c-1.07,0-1.95,0.95-1.95,2.17C39.24,26.83,40.13,27.77,41.2,27.77z M40.47,25.6
	c0,0.62,0.41,1,0.97,1c0.56,0,0.97-0.39,0.97-1c0-0.62-0.41-1-0.97-1C40.88,24.6,40.47,24.98,40.47,25.6z"/>
</svg>
