<?xml version="1.0" encoding="utf-8"?>
<!-- Generator: Adobe Illustrator 25.1.0, SVG Export Plug-In . SVG Version: 6.00 Build 0)  -->
<svg version="1.1" id="Layer_1" xmlns="http://www.w3.org/2000/svg" xmlns:xlink="http://www.w3.org/1999/xlink" x="0px" y="0px"
	 viewBox="0 0 50 50" style="enable-background:new 0 0 50 50;" xml:space="preserve">
<style type="text/css">
	.st0{fill:#21437D;}
	.st1{fill-rule:evenodd;clip-rule:evenodd;fill:#6CCAD1;}
</style>
<rect class="st0" width="50" height="50"/>
<path class="st1" d="M33.72,24.61c0.02-0.27,0.03-0.54,0.03-0.82c0-0.54-0.04-1.08-0.13-1.6c1.25,1.43,2.01,3.3,2.01,5.35
	c0,2.17-0.85,4.25-2.38,5.79c-1.53,1.54-3.61,2.4-5.78,2.4c-2.06,0-3.94-0.76-5.38-2.01c0.52,0.08,1.05,0.13,1.6,0.13
	c0.28,0,0.55-0.01,0.82-0.03c1.74,0.82,3.78,0.9,5.61,0.13c2.58-1.08,4.26-3.61,4.25-6.41C34.38,26.49,34.14,25.5,33.72,24.61z
	 M33.72,24.61c-1.11-2.34-3.49-3.96-6.25-3.96c-2.8,0-5.32,1.68-6.39,4.27c-1.07,2.59-0.48,5.56,1.51,7.54
	c0.57,0.57,1.23,1.02,1.93,1.36C29.42,33.42,33.32,29.51,33.72,24.61z M22.1,33.72c-4.79-0.77-8.46-4.92-8.46-9.93
	c0-5.55,4.5-10.06,10.06-10.06c5.01,0,9.17,3.66,9.93,8.46c-1.5-1.72-3.71-2.81-6.17-2.8c-4.51,0.01-8.16,3.67-8.16,8.18
	C19.3,30.03,20.38,32.23,22.1,33.72z"/>
</svg>
