<?xml version="1.0" encoding="utf-8"?>
<!-- Generator: Adobe Illustrator 25.1.0, SVG Export Plug-In . SVG Version: 6.00 Build 0)  -->
<svg version="1.1" id="Layer_1" xmlns="http://www.w3.org/2000/svg" xmlns:xlink="http://www.w3.org/1999/xlink" x="0px" y="0px"
	 viewBox="0 0 50 50" style="enable-background:new 0 0 50 50;" xml:space="preserve">
<style type="text/css">
	.st0{fill:#4E489D;}
	.st1{fill-rule:evenodd;clip-rule:evenodd;fill:#D9DFF1;}
</style>
<rect class="st0" width="50" height="50"/>
<path class="st1" d="M28.86,26.44c-0.19,0.08-0.4,0.12-0.63,0.12c-0.32,0-0.61-0.08-0.87-0.24c-0.26-0.16-0.46-0.37-0.6-0.65
	c-0.15-0.27-0.22-0.59-0.22-0.94s0.07-0.66,0.22-0.94c0.15-0.27,0.35-0.49,0.6-0.65c0.26-0.16,0.55-0.24,0.87-0.24
	c0.22,0,0.42,0.04,0.61,0.11c0.19,0.07,0.35,0.18,0.5,0.31v-2.1h1v5.25h-0.94l-0.02-0.38C29.22,26.25,29.05,26.36,28.86,26.44z
	 M8.64,26.14v2.1h-1v-5.25h0.94l0.02,0.38c0.15-0.14,0.32-0.25,0.51-0.33c0.19-0.08,0.4-0.12,0.63-0.12c0.33,0,0.62,0.08,0.87,0.24
	c0.25,0.16,0.45,0.37,0.6,0.65c0.15,0.27,0.22,0.59,0.22,0.94s-0.07,0.66-0.22,0.94c-0.15,0.27-0.35,0.49-0.6,0.65
	c-0.25,0.16-0.55,0.24-0.87,0.24c-0.22,0-0.42-0.04-0.61-0.11C8.95,26.37,8.79,26.27,8.64,26.14z M8.89,25.41
	c0.17,0.18,0.38,0.27,0.63,0.27c0.25,0,0.47-0.09,0.63-0.27c0.17-0.18,0.25-0.4,0.25-0.68s-0.08-0.5-0.25-0.68
	c-0.17-0.18-0.38-0.27-0.63-0.27c-0.25,0-0.47,0.09-0.63,0.27c-0.17,0.18-0.25,0.4-0.25,0.68S8.73,25.23,8.89,25.41z M13.71,26.56
	c0.36,0,0.67-0.08,0.95-0.24c0.28-0.16,0.5-0.37,0.66-0.65c0.16-0.27,0.24-0.59,0.24-0.94s-0.08-0.66-0.24-0.94
	c-0.16-0.27-0.38-0.49-0.66-0.65c-0.28-0.16-0.6-0.24-0.95-0.24c-0.36,0-0.67,0.08-0.95,0.24c-0.28,0.16-0.5,0.37-0.66,0.65
	c-0.16,0.27-0.24,0.59-0.24,0.94s0.08,0.66,0.24,0.94c0.16,0.27,0.38,0.49,0.66,0.65C13.04,26.48,13.36,26.56,13.71,26.56z
	 M13.08,25.41c0.17,0.18,0.38,0.27,0.63,0.27c0.25,0,0.47-0.09,0.63-0.27c0.17-0.18,0.25-0.4,0.25-0.68s-0.08-0.5-0.25-0.68
	c-0.17-0.18-0.38-0.27-0.63-0.27c-0.25,0-0.47,0.09-0.63,0.27c-0.17,0.18-0.25,0.4-0.25,0.68S12.91,25.23,13.08,25.41z M17.23,26.49
	v-1.86c0-0.28,0.06-0.49,0.19-0.63c0.13-0.14,0.28-0.21,0.46-0.21c0.18,0,0.33,0.07,0.46,0.2s0.19,0.34,0.19,0.61v1.88h1v-1.86
	c0-0.28,0.06-0.49,0.19-0.63c0.13-0.14,0.28-0.21,0.46-0.21c0.18,0,0.33,0.07,0.46,0.2c0.13,0.14,0.19,0.34,0.19,0.61v1.88h1V24.6
	c0-0.53-0.12-0.94-0.35-1.24c-0.23-0.3-0.56-0.45-0.98-0.45c-0.27,0-0.5,0.06-0.69,0.18c-0.2,0.12-0.35,0.29-0.47,0.51
	c-0.22-0.46-0.6-0.69-1.14-0.69c-0.42,0-0.75,0.15-1,0.44l-0.02-0.37h-0.94v3.5H17.23z M25.22,26.32c-0.28,0.16-0.6,0.24-0.95,0.24
	s-0.67-0.08-0.95-0.24c-0.28-0.16-0.5-0.37-0.66-0.65c-0.16-0.27-0.24-0.59-0.24-0.94s0.08-0.66,0.24-0.94
	c0.16-0.27,0.38-0.49,0.66-0.65c0.28-0.16,0.6-0.24,0.95-0.24s0.67,0.08,0.95,0.24c0.28,0.16,0.5,0.37,0.66,0.65
	c0.16,0.27,0.24,0.59,0.24,0.94s-0.08,0.66-0.24,0.94C25.72,25.95,25.5,26.16,25.22,26.32z M24.27,25.68
	c-0.25,0-0.47-0.09-0.63-0.27c-0.17-0.18-0.25-0.4-0.25-0.68s0.08-0.5,0.25-0.68c0.17-0.18,0.38-0.27,0.63-0.27
	c0.25,0,0.47,0.09,0.63,0.27c0.17,0.18,0.25,0.4,0.25,0.68s-0.08,0.5-0.25,0.68C24.74,25.59,24.52,25.68,24.27,25.68z M28.46,25.68
	c-0.25,0-0.47-0.09-0.63-0.27c-0.17-0.18-0.25-0.4-0.25-0.68s0.08-0.5,0.25-0.68c0.17-0.18,0.38-0.27,0.63-0.27
	c0.25,0,0.47,0.09,0.63,0.27c0.17,0.18,0.25,0.4,0.25,0.68s-0.08,0.5-0.25,0.68C28.92,25.59,28.71,25.68,28.46,25.68z M33.81,26.32
	c-0.28,0.16-0.6,0.24-0.95,0.24c-0.36,0-0.67-0.08-0.95-0.24c-0.28-0.16-0.5-0.37-0.66-0.65C31.08,25.4,31,25.09,31,24.74
	s0.08-0.66,0.24-0.94c0.16-0.27,0.38-0.49,0.66-0.65c0.28-0.16,0.6-0.24,0.95-0.24c0.36,0,0.67,0.08,0.95,0.24
	c0.28,0.16,0.5,0.37,0.66,0.65c0.16,0.27,0.24,0.59,0.24,0.94s-0.08,0.66-0.24,0.94C34.3,25.95,34.08,26.16,33.81,26.32z
	 M32.85,25.68c-0.25,0-0.47-0.09-0.63-0.27c-0.17-0.18-0.25-0.4-0.25-0.68s0.08-0.5,0.25-0.68c0.17-0.18,0.38-0.27,0.63-0.27
	s0.47,0.09,0.63,0.27c0.17,0.18,0.25,0.4,0.25,0.68s-0.08,0.5-0.25,0.68C33.32,25.59,33.11,25.68,32.85,25.68z M36.37,24.94v1.54h-1
	v-3.5h0.88l0.05,0.5c0.25-0.38,0.6-0.57,1.04-0.57c0.15,0,0.31,0.02,0.47,0.07l-0.14,0.87c-0.13-0.04-0.27-0.07-0.4-0.07
	c-0.27,0-0.49,0.1-0.65,0.3C36.45,24.29,36.37,24.57,36.37,24.94z M39.79,26.56c0.36,0,0.67-0.08,0.95-0.24
	c0.28-0.16,0.5-0.37,0.66-0.65c0.16-0.27,0.24-0.59,0.24-0.94s-0.08-0.66-0.24-0.94c-0.16-0.27-0.38-0.49-0.66-0.65
	c-0.28-0.16-0.6-0.24-0.95-0.24c-0.36,0-0.67,0.08-0.95,0.24c-0.28,0.16-0.5,0.37-0.66,0.65c-0.16,0.27-0.24,0.59-0.24,0.94
	s0.08,0.66,0.24,0.94c0.16,0.27,0.38,0.49,0.66,0.65C39.12,26.48,39.43,26.56,39.79,26.56z M39.16,25.41
	c0.17,0.18,0.38,0.27,0.63,0.27c0.25,0,0.47-0.09,0.63-0.27c0.17-0.18,0.25-0.4,0.25-0.68s-0.08-0.5-0.25-0.68
	c-0.17-0.18-0.38-0.27-0.63-0.27c-0.25,0-0.47,0.09-0.63,0.27c-0.17,0.18-0.25,0.4-0.25,0.68S38.99,25.23,39.16,25.41z"/>
</svg>
