<?xml version="1.0" encoding="utf-8"?>
<!-- Generator: Adobe Illustrator 25.1.0, SVG Export Plug-In . SVG Version: 6.00 Build 0)  -->
<svg version="1.1" id="Layer_1" xmlns="http://www.w3.org/2000/svg" xmlns:xlink="http://www.w3.org/1999/xlink" x="0px" y="0px"
	 viewBox="0 0 50 50" style="enable-background:new 0 0 50 50;" xml:space="preserve">
<style type="text/css">
	.st0{fill:#E89224;}
	.st1{fill-rule:evenodd;clip-rule:evenodd;fill:#FFFFFF;}
</style>
<rect class="st0" width="50" height="50"/>
<path class="st1" d="M45.33,25.54v1.92h-3.36c-0.36,0-0.66-0.12-0.89-0.35c-0.23-0.23-0.34-0.53-0.34-0.9v-4.77h-2.35v-1.92h2.35
	v-3.26h2.02v3.26h2.86v1.92h-2.86v3.62c0,0.32,0.14,0.48,0.43,0.48H45.33z M9.28,27.68c1.05,0,1.86-0.23,2.43-0.7
	c0.58-0.47,0.86-1.1,0.86-1.89V25c0-0.71-0.26-1.27-0.77-1.67c-0.51-0.4-1.17-0.64-1.98-0.73c-0.7-0.07-1.19-0.17-1.46-0.28
	s-0.4-0.3-0.4-0.55c0-0.18,0.09-0.33,0.26-0.46c0.17-0.12,0.43-0.18,0.77-0.18c0.37,0,0.68,0.08,0.91,0.25
	c0.23,0.17,0.4,0.39,0.5,0.68l1.82-0.74c-0.09-0.22-0.21-0.46-0.37-0.7s-0.37-0.46-0.62-0.66c-0.26-0.2-0.57-0.36-0.94-0.48
	c-0.37-0.12-0.8-0.18-1.3-0.18c-0.38,0-0.76,0.05-1.12,0.16c-0.36,0.11-0.68,0.26-0.96,0.47c-0.28,0.21-0.5,0.46-0.67,0.76
	c-0.17,0.3-0.26,0.65-0.26,1.04v0.1c0,0.76,0.26,1.33,0.79,1.72s1.24,0.62,2.14,0.7c0.33,0.03,0.61,0.07,0.82,0.13
	c0.22,0.05,0.39,0.12,0.52,0.2c0.13,0.08,0.22,0.17,0.26,0.26c0.05,0.09,0.07,0.19,0.07,0.3c0,0.18-0.09,0.35-0.28,0.5
	c-0.19,0.15-0.53,0.23-1.03,0.23c-0.57,0-0.98-0.13-1.26-0.38c-0.27-0.26-0.45-0.55-0.54-0.9l-1.86,0.61
	c0.05,0.28,0.16,0.56,0.31,0.86c0.15,0.29,0.38,0.56,0.66,0.8c0.29,0.24,0.65,0.44,1.09,0.6C8.14,27.6,8.66,27.68,9.28,27.68z
	 M17.48,27.68c1.13,0,2.03-0.29,2.71-0.86s1.11-1.33,1.29-2.27l-1.98-0.5c-0.1,0.52-0.31,0.94-0.63,1.25
	c-0.33,0.31-0.8,0.46-1.42,0.46c-0.29,0-0.56-0.05-0.82-0.14s-0.48-0.23-0.67-0.41c-0.19-0.18-0.34-0.41-0.46-0.68
	c-0.11-0.27-0.17-0.58-0.17-0.94v-0.1c0-0.35,0.06-0.67,0.17-0.95c0.11-0.28,0.26-0.52,0.46-0.72c0.19-0.2,0.42-0.35,0.67-0.46
	c0.26-0.11,0.53-0.16,0.82-0.16c0.62,0,1.1,0.17,1.44,0.51c0.34,0.34,0.54,0.75,0.61,1.22l1.98-0.51c-0.18-0.94-0.62-1.7-1.3-2.27
	c-0.69-0.58-1.59-0.86-2.7-0.86c-0.58,0-1.12,0.1-1.62,0.29c-0.51,0.19-0.95,0.47-1.33,0.83s-0.67,0.8-0.89,1.31
	c-0.21,0.51-0.32,1.09-0.32,1.73v0.19c0,0.64,0.11,1.21,0.32,1.71c0.21,0.5,0.51,0.92,0.88,1.26c0.37,0.34,0.81,0.6,1.32,0.78
	C16.34,27.59,16.89,27.68,17.48,27.68z M27.23,27.41c-0.5,0.18-1.02,0.27-1.56,0.27c-0.54,0-1.06-0.09-1.56-0.27
	c-0.5-0.18-0.94-0.45-1.32-0.79c-0.38-0.35-0.69-0.77-0.91-1.28c-0.22-0.51-0.34-1.09-0.34-1.75V23.4c0-0.65,0.11-1.23,0.34-1.74
	c0.22-0.51,0.53-0.94,0.91-1.29c0.38-0.35,0.82-0.62,1.32-0.8c0.5-0.18,1.02-0.27,1.56-0.27c0.54,0,1.06,0.09,1.56,0.27
	c0.5,0.18,0.94,0.45,1.32,0.8c0.38,0.35,0.69,0.78,0.91,1.29c0.22,0.51,0.34,1.09,0.34,1.74v0.19c0,0.66-0.11,1.25-0.34,1.75
	c-0.22,0.51-0.53,0.93-0.91,1.28C28.17,26.97,27.73,27.23,27.23,27.41z M25.67,25.76c-0.29,0-0.56-0.05-0.82-0.14
	c-0.26-0.1-0.48-0.23-0.67-0.42c-0.19-0.18-0.34-0.4-0.46-0.66c-0.11-0.26-0.17-0.56-0.17-0.89v-0.32c0-0.33,0.06-0.63,0.17-0.89
	c0.11-0.26,0.26-0.48,0.46-0.66c0.19-0.18,0.42-0.32,0.67-0.42c0.26-0.1,0.53-0.14,0.82-0.14c0.29,0,0.56,0.05,0.82,0.14
	c0.26,0.1,0.48,0.23,0.67,0.42c0.19,0.18,0.34,0.4,0.46,0.66c0.11,0.26,0.17,0.56,0.17,0.89v0.32c0,0.33-0.06,0.63-0.17,0.89
	c-0.11,0.26-0.26,0.48-0.46,0.66c-0.19,0.18-0.42,0.32-0.67,0.42C26.23,25.72,25.96,25.76,25.67,25.76z M35.53,27.41
	c-0.5,0.18-1.02,0.27-1.56,0.27c-0.54,0-1.06-0.09-1.56-0.27c-0.5-0.18-0.94-0.45-1.32-0.79c-0.38-0.35-0.69-0.77-0.91-1.28
	c-0.22-0.51-0.34-1.09-0.34-1.75V23.4c0-0.65,0.11-1.23,0.34-1.74c0.22-0.51,0.53-0.94,0.91-1.29c0.38-0.35,0.82-0.62,1.32-0.8
	c0.5-0.18,1.02-0.27,1.56-0.27c0.54,0,1.06,0.09,1.56,0.27c0.5,0.18,0.94,0.45,1.32,0.8c0.38,0.35,0.69,0.78,0.91,1.29
	s0.34,1.09,0.34,1.74v0.19c0,0.66-0.11,1.25-0.34,1.75s-0.53,0.93-0.91,1.28C36.46,26.97,36.02,27.23,35.53,27.41z M33.97,25.76
	c-0.29,0-0.56-0.05-0.82-0.14c-0.26-0.1-0.48-0.23-0.67-0.42c-0.19-0.18-0.34-0.4-0.46-0.66c-0.11-0.26-0.17-0.56-0.17-0.89v-0.32
	c0-0.33,0.06-0.63,0.17-0.89c0.11-0.26,0.26-0.48,0.46-0.66c0.19-0.18,0.42-0.32,0.67-0.42s0.53-0.14,0.82-0.14
	c0.29,0,0.56,0.05,0.82,0.14s0.48,0.23,0.67,0.42c0.19,0.18,0.34,0.4,0.46,0.66s0.17,0.56,0.17,0.89v0.32
	c0,0.33-0.06,0.63-0.17,0.89c-0.11,0.26-0.26,0.48-0.46,0.66c-0.19,0.18-0.42,0.32-0.67,0.42C34.53,25.72,34.25,25.76,33.97,25.76z"
	/>
</svg>
