<?xml version="1.0" encoding="utf-8"?>
<!-- Generator: Adobe Illustrator 25.1.0, SVG Export Plug-In . SVG Version: 6.00 Build 0)  -->
<svg version="1.1" id="Layer_1" xmlns="http://www.w3.org/2000/svg" xmlns:xlink="http://www.w3.org/1999/xlink" x="0px" y="0px"
	 viewBox="0 0 50 50" style="enable-background:new 0 0 50 50;" xml:space="preserve">
<style type="text/css">
	.st0{fill:#FFFFFF;}
	.st1{fill:#EF6822;}
	.st2{fill-rule:evenodd;clip-rule:evenodd;fill:#EF6822;}
</style>
<rect x="12.64" y="12.74" class="st0" width="24" height="24"/>
<rect class="st1" width="50" height="50"/>
<rect x="12.64" y="12.74" class="st0" width="24" height="24"/>
<path class="st2" d="M17.52,22.19c0,0.11-0.06,0.18-0.17,0.18h-1.37c-0.11,0-0.17-0.07-0.17-0.18v-4.82c0-0.05-0.03-0.08-0.07-0.08
	h-1.42c-0.11,0-0.17-0.07-0.17-0.18v-1.17c0-0.11,0.06-0.18,0.17-0.18h4.74c0.11,0,0.17,0.07,0.17,0.18v1.17
	c0,0.11-0.06,0.18-0.17,0.18H17.6c-0.05,0-0.07,0.03-0.07,0.08V22.19z M21.47,22.19c0,0.11-0.06,0.18-0.17,0.18h-1.37
	c-0.11,0-0.17-0.07-0.17-0.18v-6.24c0-0.11,0.06-0.18,0.17-0.18h1.36c0.09,0,0.16,0.04,0.21,0.12l1.1,1.86
	c0.03,0.06,0.08,0.06,0.11,0l1.1-1.86c0.05-0.08,0.12-0.12,0.21-0.12h1.36c0.11,0,0.17,0.07,0.17,0.18v6.24
	c0,0.11-0.06,0.18-0.17,0.18h-1.37c-0.11,0-0.17-0.07-0.17-0.18v-3.33c0-0.08-0.05-0.08-0.09-0.03l-0.56,0.97
	c-0.05,0.08-0.12,0.12-0.21,0.12h-0.64c-0.09,0-0.16-0.04-0.21-0.12l-0.56-0.97c-0.04-0.06-0.09-0.05-0.09,0.03V22.19z"/>
</svg>
