<?xml version="1.0" encoding="utf-8"?>
<!-- Generator: Adobe Illustrator 25.1.0, SVG Export Plug-In . SVG Version: 6.00 Build 0)  -->
<svg version="1.1" id="Layer_1" xmlns="http://www.w3.org/2000/svg" xmlns:xlink="http://www.w3.org/1999/xlink" x="0px" y="0px"
	 viewBox="0 0 50 50" style="enable-background:new 0 0 50 50;" xml:space="preserve">
<style type="text/css">
	.st0{fill-rule:evenodd;clip-rule:evenodd;fill:#FFFFFF;}
	.st1{fill-rule:evenodd;clip-rule:evenodd;fill:#34353F;}
</style>
<path class="st0" d="M21.29,25.74c0.56,0,1.02-0.05,1.38-0.14c0.36-0.09,0.64-0.24,0.83-0.42c0.19-0.19,0.29-0.42,0.3-0.7h-1.14
	c-0.04,0.08-0.1,0.15-0.19,0.21c-0.09,0.07-0.23,0.12-0.42,0.16c-0.19,0.04-0.44,0.06-0.76,0.06c-0.37,0-0.68-0.02-0.91-0.07
	c-0.23-0.04-0.41-0.11-0.51-0.21c-0.11-0.09-0.16-0.22-0.16-0.37c0-0.16,0.05-0.3,0.16-0.4c0.11-0.1,0.28-0.17,0.51-0.22
	c0.23-0.05,0.54-0.07,0.91-0.07c0.32,0,0.57,0.02,0.76,0.06c0.19,0.04,0.33,0.1,0.42,0.17c0.09,0.07,0.16,0.16,0.19,0.25h1.14
	c-0.01-0.28-0.12-0.52-0.3-0.72c-0.19-0.2-0.46-0.35-0.83-0.45c-0.37-0.1-0.83-0.15-1.38-0.15c-0.42,0-0.8,0.02-1.14,0.08
	c-0.34,0.05-0.62,0.13-0.86,0.25c-0.24,0.12-0.42,0.27-0.54,0.47c-0.13,0.2-0.19,0.44-0.19,0.73c0,0.29,0.06,0.53,0.19,0.72
	c0.13,0.19,0.31,0.34,0.54,0.45c0.24,0.11,0.52,0.19,0.86,0.23C20.49,25.71,20.87,25.74,21.29,25.74z M10.55,22.82l-1.68,2.82H7.34
	l-1.7-2.82h1.24l1.23,2.3l1.23-2.3H10.55z M16.75,24.81v0.84h-4.43v-2.82h4.42v0.84h-3.33v0.35h2.72v0.44h-2.72v0.35H16.75z
	 M28.31,23.66v1.99h-1.1v-1.99h-1.73v-0.84h4.56v0.84H28.31z M34.25,25.74c0.64,0,1.15-0.06,1.54-0.17c0.39-0.11,0.67-0.28,0.85-0.5
	s0.27-0.5,0.27-0.83s-0.09-0.61-0.27-0.83s-0.46-0.39-0.85-0.5c-0.39-0.11-0.9-0.17-1.54-0.17c-0.64,0-1.15,0.06-1.54,0.17
	c-0.39,0.11-0.67,0.28-0.85,0.5c-0.18,0.22-0.27,0.5-0.27,0.83s0.09,0.61,0.27,0.83c0.18,0.22,0.46,0.39,0.85,0.5
	C33.1,25.68,33.61,25.74,34.25,25.74z M33.46,24.84c0.23,0.04,0.49,0.06,0.79,0.06c0.3,0,0.56-0.02,0.78-0.06
	c0.22-0.04,0.39-0.1,0.51-0.2s0.18-0.23,0.18-0.41s-0.06-0.31-0.18-0.41s-0.29-0.16-0.51-0.2c-0.22-0.04-0.48-0.06-0.78-0.06
	c-0.3,0-0.57,0.02-0.79,0.06c-0.23,0.04-0.4,0.1-0.53,0.2s-0.19,0.23-0.19,0.41s0.06,0.31,0.19,0.41S33.23,24.81,33.46,24.84z
	 M39.94,25.65v-0.79h1.72c0.23,0,0.41,0.01,0.52,0.03c0.11,0.02,0.19,0.05,0.22,0.09c0.03,0.05,0.05,0.11,0.05,0.2v0.47h1.1v-0.6
	c0-0.13-0.04-0.23-0.11-0.3c-0.07-0.07-0.21-0.12-0.39-0.14c-0.03,0-0.07-0.01-0.11-0.01l-0.04,0l0.08-0.01
	c0.11-0.02,0.2-0.05,0.29-0.09l0.06-0.03c0.1-0.06,0.18-0.14,0.24-0.25s0.09-0.24,0.09-0.4c0-0.24-0.06-0.44-0.19-0.58
	c-0.12-0.14-0.29-0.24-0.5-0.3c-0.21-0.06-0.45-0.09-0.72-0.09h-3.39v2.82H39.94z M39.94,24.12h2.29c0.09,0,0.16-0.01,0.22-0.04
	c0.06-0.03,0.09-0.09,0.09-0.17c0-0.08-0.03-0.13-0.09-0.16c-0.06-0.03-0.13-0.04-0.22-0.04h-2.29V24.12z"/>
<rect y="-0.2" class="st1" width="50" height="50.2"/>
<path class="st0" d="M21.43,25.6c0.56,0,1.02-0.05,1.38-0.14c0.36-0.09,0.64-0.24,0.83-0.42c0.19-0.19,0.29-0.42,0.3-0.7H22.8
	c-0.04,0.08-0.1,0.15-0.19,0.21c-0.09,0.07-0.23,0.12-0.42,0.16c-0.19,0.04-0.44,0.06-0.76,0.06c-0.37,0-0.68-0.02-0.91-0.07
	c-0.23-0.04-0.41-0.11-0.51-0.21c-0.11-0.09-0.16-0.22-0.16-0.37c0-0.16,0.05-0.3,0.16-0.4c0.11-0.1,0.28-0.17,0.51-0.22
	c0.23-0.05,0.54-0.07,0.91-0.07c0.32,0,0.57,0.02,0.76,0.06c0.19,0.04,0.33,0.1,0.42,0.17c0.09,0.07,0.16,0.16,0.19,0.25h1.14
	c-0.01-0.28-0.12-0.52-0.3-0.72c-0.19-0.2-0.46-0.35-0.83-0.45c-0.37-0.1-0.83-0.15-1.38-0.15c-0.42,0-0.8,0.02-1.14,0.08
	c-0.34,0.05-0.62,0.13-0.86,0.25c-0.24,0.12-0.42,0.27-0.54,0.47c-0.13,0.2-0.19,0.44-0.19,0.73c0,0.29,0.06,0.53,0.19,0.72
	c0.13,0.19,0.31,0.34,0.54,0.45c0.24,0.11,0.52,0.19,0.86,0.23C20.63,25.58,21.01,25.6,21.43,25.6z M10.7,22.69l-1.68,2.82H7.48
	l-1.7-2.82h1.24l1.23,2.3l1.23-2.3H10.7z M16.89,24.67v0.84h-4.43v-2.82h4.42v0.84h-3.33v0.35h2.72v0.44h-2.72v0.35H16.89z
	 M28.46,23.52v1.99h-1.1v-1.99h-1.73v-0.84h4.56v0.84H28.46z M34.39,25.6c0.64,0,1.15-0.06,1.54-0.17c0.39-0.11,0.67-0.28,0.85-0.5
	s0.27-0.5,0.27-0.83s-0.09-0.61-0.27-0.83s-0.46-0.39-0.85-0.5c-0.39-0.11-0.9-0.17-1.54-0.17c-0.64,0-1.15,0.06-1.54,0.17
	c-0.39,0.11-0.67,0.28-0.85,0.5c-0.18,0.22-0.27,0.5-0.27,0.83s0.09,0.61,0.27,0.83c0.18,0.22,0.46,0.39,0.85,0.5
	C33.24,25.54,33.75,25.6,34.39,25.6z M33.6,24.7c0.23,0.04,0.49,0.06,0.79,0.06c0.3,0,0.56-0.02,0.78-0.06
	c0.22-0.04,0.39-0.1,0.51-0.2s0.18-0.23,0.18-0.41s-0.06-0.31-0.18-0.41s-0.29-0.16-0.51-0.2c-0.22-0.04-0.48-0.06-0.78-0.06
	c-0.3,0-0.57,0.02-0.79,0.06c-0.23,0.04-0.4,0.1-0.53,0.2s-0.19,0.23-0.19,0.41s0.06,0.31,0.19,0.41S33.37,24.67,33.6,24.7z
	 M40.08,25.51v-0.79h1.72c0.23,0,0.41,0.01,0.52,0.03c0.11,0.02,0.19,0.05,0.22,0.09c0.03,0.05,0.05,0.11,0.05,0.2v0.47h1.1v-0.6
	c0-0.13-0.04-0.23-0.11-0.3c-0.07-0.07-0.21-0.12-0.39-0.14c-0.03,0-0.07-0.01-0.11-0.01l-0.04,0l0.08-0.01
	c0.11-0.02,0.2-0.05,0.29-0.09l0.06-0.03c0.1-0.06,0.18-0.14,0.24-0.25s0.09-0.24,0.09-0.4c0-0.24-0.06-0.44-0.19-0.58
	c-0.12-0.14-0.29-0.24-0.5-0.3c-0.21-0.06-0.45-0.09-0.72-0.09h-3.39v2.82H40.08z M40.08,23.98h2.29c0.09,0,0.16-0.01,0.22-0.04
	c0.06-0.03,0.09-0.09,0.09-0.17c0-0.08-0.03-0.13-0.09-0.16c-0.06-0.03-0.13-0.04-0.22-0.04h-2.29V23.98z"/>
</svg>
